<svg width="54" height="54" viewBox="0 0 54 54" fill="none" xmlns="http://www.w3.org/2000/svg">
<path d="M27.6749 2.70001C41.4449 2.70001 51.2999 13.608 51.2999 27C51.2999 40.392 41.4449 51.3 27.6749 51.3C23.6051 51.3151 19.5922 50.3427 15.9806 48.4664C12.3691 46.59 9.26646 43.8657 6.93895 40.527L13.9319 36.423C16.9019 40.473 21.6539 43.2 27 43.2C35.91 43.2 43.1999 35.667 43.1999 27C43.1999 18.333 35.91 10.8 27 10.8C21.681 10.8 16.9559 13.5 13.9859 17.523L18.9 21.6L2.69995 27V8.10001L7.80295 12.366C10.1608 9.34822 13.1766 6.90873 16.6205 5.23359C20.0644 3.55844 23.8453 2.69189 27.6749 2.70001Z" fill="black"/>
</svg>
