<svg width="31" height="24" viewBox="0 0 31 24" fill="none" xmlns="http://www.w3.org/2000/svg">
<path d="M16.663 5.22094C21.3702 5.22094 24.0407 8.33635 24.4292 12.0995H24.5481C27.5773 12.0995 30.0331 14.5494 30.0331 17.5704C30.0331 20.5922 27.5773 23.0413 24.5481 23.0413H8.77785C5.74861 23.0413 3.29283 20.5922 3.29283 17.5704C3.29283 14.6095 5.65204 12.1976 8.5966 12.1025L8.89745 12.0995C9.28818 8.31184 11.9557 5.22094 16.663 5.22094ZM16.663 7.07429C13.4985 7.07429 10.7389 9.63556 10.7389 13.1729C10.7389 13.7337 10.2516 14.1735 9.69376 14.1735H8.6382C6.71057 14.1735 5.14841 15.7438 5.14841 17.6811C5.14841 19.6177 6.71057 21.188 8.63746 21.188H24.687C26.6146 21.188 28.176 19.6177 28.176 17.6811C28.176 15.7438 26.6146 14.1735 24.687 14.1735H23.6321C23.0735 14.1735 22.5863 13.7337 22.5863 13.1736C22.5863 9.59024 19.8274 7.07429 16.6622 7.07429H16.663ZM12.2038 0.750611C13.3432 0.750064 14.4655 1.02743 15.4734 1.55866C16.4814 2.08989 17.3446 2.85895 17.9882 3.79917C17.1403 3.69894 16.2839 3.6947 15.4351 3.78654C14.538 3.00891 13.3909 2.5804 12.2038 2.57945C9.76433 2.57945 7.68516 4.37932 7.26917 6.81059L7.03593 8.16996C7.00646 8.34287 6.91676 8.49977 6.78271 8.61288C6.64865 8.726 6.4789 8.78803 6.3035 8.78799H4.85722C3.32477 8.78799 2.08276 10.0582 2.08276 11.6263C2.08276 12.4479 2.42446 13.1877 2.96895 13.7062C2.64592 14.1894 2.38535 14.7116 2.19344 15.2602C1.3934 14.6353 0.808354 13.7763 0.519919 12.803C0.231484 11.8296 0.254043 10.7905 0.58445 9.83064C0.914858 8.87074 1.53663 8.0379 2.36305 7.44831C3.18946 6.85872 4.17929 6.54177 5.19446 6.54168H5.29994C5.5869 4.9191 6.4361 3.44939 7.69854 2.39044C8.96097 1.33148 10.556 0.750916 12.2038 0.750611Z" fill="white"/>
</svg>
