<svg width="37" height="37" viewBox="0 0 37 37" fill="none" xmlns="http://www.w3.org/2000/svg">
<path d="M30.4838 13.8179C28.8899 14.7789 27.1904 15.3884 25.3856 15.6462C23.5807 15.9041 22.2212 15.7517 21.307 15.1891C21.2836 15.1891 21.2074 15.1423 21.0785 15.0485C20.9495 14.9547 20.8148 14.8668 20.6741 14.7848C20.5335 14.7028 20.3928 14.6617 20.2522 14.6617V24.5066C21.2836 23.3111 22.4556 22.3149 23.7682 21.518C24.4948 21.0726 25.3328 20.7503 26.2821 20.5511C27.2315 20.3518 28.128 20.2639 28.9719 20.2874C29.8157 20.3108 30.6068 20.3635 31.3452 20.4456C32.0836 20.5276 32.6637 20.6272 33.0856 20.7444L33.7537 20.8851C33.6833 21.0257 33.572 21.2132 33.4196 21.4476C33.2673 21.682 32.9567 22.1215 32.4879 22.7661C32.0191 23.4107 31.5386 24.026 31.0463 24.612C30.5541 25.198 29.9388 25.8251 29.2004 26.4931C28.4621 27.1611 27.7296 27.7178 27.0029 28.1632C23.9557 29.9915 21.7055 30.9526 20.2522 31.0463V33.7888C20.2522 34.3983 20.0354 34.9257 19.6017 35.371C19.1681 35.8164 18.6348 36.0391 18.002 36.0391C17.3691 36.0391 16.8358 35.8164 16.4022 35.371C15.9685 34.9257 15.7517 34.3983 15.7517 33.7888V31.4683C14.65 31.6089 13.3667 31.5034 11.9017 31.1518C10.4367 30.8002 9.08302 30.2611 7.84069 29.5345C7.11405 29.1125 6.42257 28.5324 5.76625 27.794C5.10993 27.0557 4.57667 26.3173 4.16647 25.5789C3.75627 24.8406 3.39881 24.1198 3.09409 23.4166C2.78936 22.7134 2.57254 22.1567 2.44362 21.7465C2.3147 21.3363 2.25024 21.1195 2.25024 21.096C2.43776 21.0257 2.68388 20.9495 2.98861 20.8675C3.29333 20.7855 3.88519 20.6683 4.76419 20.5159C5.64319 20.3635 6.48703 20.2815 7.29571 20.2698C8.10439 20.2581 8.98926 20.3635 9.9503 20.5862C10.9113 20.8089 11.7317 21.1781 12.4115 21.6938C13.0913 22.2094 14.2047 23.6276 15.7517 25.9481V16.912C15.6111 16.912 15.4704 16.953 15.3298 17.035C15.1891 17.1171 15.0544 17.205 14.9254 17.2987C14.7965 17.3925 14.7203 17.4511 14.6969 17.4746C13.7827 18.0137 12.4232 18.1543 10.6183 17.8965C8.81346 17.6386 7.11405 17.0292 5.52013 16.0681C4.79349 15.6228 4.10201 15.0133 3.44569 14.2398C2.78936 13.4663 2.26782 12.7279 1.88106 12.0247C1.4943 11.3215 1.1427 10.5656 0.826261 9.75692C0.509821 8.94824 0.304721 8.39153 0.21096 8.08681C0.1172 7.78209 0.0468801 7.54769 0 7.38361C0.16408 7.33673 0.392621 7.27813 0.685621 7.20781C0.978622 7.13749 1.54704 7.04959 2.39088 6.94411C3.23473 6.83863 4.04341 6.78003 4.81693 6.76831C5.59045 6.75659 6.46359 6.85035 7.43635 7.04959C8.40911 7.24883 9.25882 7.57113 9.98546 8.01649C11.4387 8.88378 12.6986 9.93272 13.7652 11.1633C14.8317 12.3939 15.4939 13.5601 15.7517 14.6617V9.00098C15.7517 8.9541 15.7634 8.86034 15.7869 8.7197C14.7321 8.43841 13.7827 8.01649 12.9389 7.45393C12.1185 6.89137 11.3801 6.02995 10.7238 4.86967C10.0675 3.70939 9.62214 2.68388 9.38774 1.79316L9.00098 0.457081C9.11818 0.433641 9.28226 0.392621 9.49322 0.334021C9.70418 0.27542 10.1085 0.2051 10.7062 0.12306C11.304 0.0410201 11.8782 0 12.4291 0C12.9799 0 13.6069 0.0761801 14.3101 0.22854C15.0133 0.380901 15.6228 0.632881 16.1385 0.984482C17.287 1.73456 18.2598 2.71318 19.0568 3.92035C19.8537 5.12751 20.2522 6.07097 20.2522 6.75073V12.4115C20.51 11.3098 21.1722 10.1437 22.2387 8.91308C23.3053 7.68247 24.5652 6.63353 26.0184 5.76625C26.7451 5.32089 27.5831 4.99859 28.5324 4.79935C29.4817 4.60011 30.3783 4.51221 31.2221 4.53565C32.066 4.55909 32.8571 4.61183 33.5954 4.69387C34.3338 4.77591 34.9139 4.86381 35.3359 4.95757L36.0039 5.13337C35.957 5.29745 35.8926 5.52599 35.8105 5.81899C35.7285 6.11199 35.5234 6.66869 35.1952 7.48909C34.8671 8.30949 34.5096 9.0713 34.1228 9.7745C33.7361 10.4777 33.2145 11.2161 32.5582 11.9896C31.9019 12.7631 31.2104 13.3725 30.4838 13.8179Z" fill="white"/>
</svg>
