<svg width="451" height="75" viewBox="0 0 451 75" fill="none" xmlns="http://www.w3.org/2000/svg">
<path d="M93.68 14.98V40H89.576V29.056H77.804V40H73.7V14.98H77.804V25.708H89.576V14.98H93.68ZM97.7148 29.992C97.7148 28 98.1228 26.236 98.9388 24.7C99.7788 23.164 100.907 21.976 102.323 21.136C103.763 20.272 105.347 19.84 107.075 19.84C108.635 19.84 109.991 20.152 111.143 20.776C112.319 21.376 113.255 22.132 113.951 23.044V20.164H118.091V40H113.951V37.048C113.255 37.984 112.307 38.764 111.107 39.388C109.907 40.012 108.539 40.324 107.003 40.324C105.299 40.324 103.739 39.892 102.323 39.028C100.907 38.14 99.7788 36.916 98.9388 35.356C98.1228 33.772 97.7148 31.984 97.7148 29.992ZM113.951 30.064C113.951 28.696 113.663 27.508 113.087 26.5C112.535 25.492 111.803 24.724 110.891 24.196C109.979 23.668 108.995 23.404 107.939 23.404C106.883 23.404 105.899 23.668 104.987 24.196C104.075 24.7 103.331 25.456 102.755 26.464C102.203 27.448 101.927 28.624 101.927 29.992C101.927 31.36 102.203 32.56 102.755 33.592C103.331 34.624 104.075 35.416 104.987 35.968C105.923 36.496 106.907 36.76 107.939 36.76C108.995 36.76 109.979 36.496 110.891 35.968C111.803 35.44 112.535 34.672 113.087 33.664C113.663 32.632 113.951 31.432 113.951 30.064ZM127.585 23.044C128.185 22.036 128.977 21.256 129.961 20.704C130.969 20.128 132.157 19.84 133.525 19.84V24.088H132.481C130.873 24.088 129.649 24.496 128.809 25.312C127.993 26.128 127.585 27.544 127.585 29.56V40H123.481V20.164H127.585V23.044ZM144.966 36.328L150.582 20.164H154.938L147.378 40H142.482L134.958 20.164H139.35L144.966 36.328ZM176.22 29.596C176.22 30.34 176.172 31.012 176.076 31.612H160.92C161.04 33.196 161.628 34.468 162.684 35.428C163.74 36.388 165.036 36.868 166.572 36.868C168.78 36.868 170.34 35.944 171.252 34.096H175.68C175.08 35.92 173.988 37.42 172.404 38.596C170.844 39.748 168.9 40.324 166.572 40.324C164.676 40.324 162.972 39.904 161.46 39.064C159.972 38.2 158.796 37 157.932 35.464C157.092 33.904 156.672 32.104 156.672 30.064C156.672 28.024 157.08 26.236 157.896 24.7C158.736 23.14 159.9 21.94 161.388 21.1C162.9 20.26 164.628 19.84 166.572 19.84C168.444 19.84 170.112 20.248 171.576 21.064C173.04 21.88 174.18 23.032 174.996 24.52C175.812 25.984 176.22 27.676 176.22 29.596ZM171.936 28.3C171.912 26.788 171.372 25.576 170.316 24.664C169.26 23.752 167.952 23.296 166.392 23.296C164.976 23.296 163.764 23.752 162.756 24.664C161.748 25.552 161.148 26.764 160.956 28.3H171.936ZM187.459 40.324C185.899 40.324 184.495 40.048 183.247 39.496C182.023 38.92 181.051 38.152 180.331 37.192C179.611 36.208 179.227 35.116 179.179 33.916H183.427C183.499 34.756 183.895 35.464 184.615 36.04C185.359 36.592 186.283 36.868 187.387 36.868C188.539 36.868 189.427 36.652 190.051 36.22C190.699 35.764 191.023 35.188 191.023 34.492C191.023 33.748 190.663 33.196 189.943 32.836C189.247 32.476 188.131 32.08 186.595 31.648C185.107 31.24 183.895 30.844 182.959 30.46C182.023 30.076 181.207 29.488 180.511 28.696C179.839 27.904 179.503 26.86 179.503 25.564C179.503 24.508 179.815 23.548 180.439 22.684C181.063 21.796 181.951 21.1 183.103 20.596C184.279 20.092 185.623 19.84 187.135 19.84C189.391 19.84 191.203 20.416 192.571 21.568C193.963 22.696 194.707 24.244 194.803 26.212H190.699C190.627 25.324 190.267 24.616 189.619 24.088C188.971 23.56 188.095 23.296 186.991 23.296C185.911 23.296 185.083 23.5 184.507 23.908C183.931 24.316 183.643 24.856 183.643 25.528C183.643 26.056 183.835 26.5 184.219 26.86C184.603 27.22 185.071 27.508 185.623 27.724C186.175 27.916 186.991 28.168 188.071 28.48C189.511 28.864 190.687 29.26 191.599 29.668C192.535 30.052 193.339 30.628 194.011 31.396C194.683 32.164 195.031 33.184 195.055 34.456C195.055 35.584 194.743 36.592 194.119 37.48C193.495 38.368 192.607 39.064 191.455 39.568C190.327 40.072 188.995 40.324 187.459 40.324ZM204.277 23.512V34.492C204.277 35.236 204.445 35.776 204.781 36.112C205.141 36.424 205.741 36.58 206.581 36.58H209.101V40H205.861C204.013 40 202.597 39.568 201.613 38.704C200.629 37.84 200.137 36.436 200.137 34.492V23.512H197.797V20.164H200.137V15.232H204.277V20.164H209.101V23.512H204.277ZM230.479 40.252C228.799 40.252 227.287 39.964 225.943 39.388C224.599 38.788 223.543 37.948 222.775 36.868C222.007 35.788 221.623 34.528 221.623 33.088H226.015C226.111 34.168 226.531 35.056 227.275 35.752C228.043 36.448 229.111 36.796 230.479 36.796C231.895 36.796 232.999 36.46 233.791 35.788C234.583 35.092 234.979 34.204 234.979 33.124C234.979 32.284 234.727 31.6 234.223 31.072C233.743 30.544 233.131 30.136 232.387 29.848C231.667 29.56 230.659 29.248 229.363 28.912C227.731 28.48 226.399 28.048 225.367 27.616C224.359 27.16 223.495 26.464 222.775 25.528C222.055 24.592 221.695 23.344 221.695 21.784C221.695 20.344 222.055 19.084 222.775 18.004C223.495 16.924 224.503 16.096 225.799 15.52C227.095 14.944 228.595 14.656 230.299 14.656C232.723 14.656 234.703 15.268 236.239 16.492C237.799 17.692 238.663 19.348 238.831 21.46H234.295C234.223 20.548 233.791 19.768 232.999 19.12C232.207 18.472 231.163 18.148 229.867 18.148C228.691 18.148 227.731 18.448 226.987 19.048C226.243 19.648 225.871 20.512 225.871 21.64C225.871 22.408 226.099 23.044 226.555 23.548C227.035 24.028 227.635 24.412 228.355 24.7C229.075 24.988 230.059 25.3 231.307 25.636C232.963 26.092 234.307 26.548 235.339 27.004C236.395 27.46 237.283 28.168 238.003 29.128C238.747 30.064 239.119 31.324 239.119 32.908C239.119 34.18 238.771 35.38 238.075 36.508C237.403 37.636 236.407 38.548 235.087 39.244C233.791 39.916 232.255 40.252 230.479 40.252ZM248.75 23.512V34.492C248.75 35.236 248.918 35.776 249.254 36.112C249.614 36.424 250.214 36.58 251.054 36.58H253.574V40H250.334C248.486 40 247.07 39.568 246.086 38.704C245.102 37.84 244.61 36.436 244.61 34.492V23.512H242.27V20.164H244.61V15.232H248.75V20.164H253.574V23.512H248.75ZM255.988 29.992C255.988 28 256.396 26.236 257.212 24.7C258.052 23.164 259.18 21.976 260.596 21.136C262.036 20.272 263.62 19.84 265.348 19.84C266.908 19.84 268.264 20.152 269.416 20.776C270.592 21.376 271.528 22.132 272.224 23.044V20.164H276.364V40H272.224V37.048C271.528 37.984 270.58 38.764 269.38 39.388C268.18 40.012 266.812 40.324 265.276 40.324C263.572 40.324 262.012 39.892 260.596 39.028C259.18 38.14 258.052 36.916 257.212 35.356C256.396 33.772 255.988 31.984 255.988 29.992ZM272.224 30.064C272.224 28.696 271.936 27.508 271.36 26.5C270.808 25.492 270.076 24.724 269.164 24.196C268.252 23.668 267.268 23.404 266.212 23.404C265.156 23.404 264.172 23.668 263.26 24.196C262.348 24.7 261.604 25.456 261.028 26.464C260.476 27.448 260.2 28.624 260.2 29.992C260.2 31.36 260.476 32.56 261.028 33.592C261.604 34.624 262.348 35.416 263.26 35.968C264.196 36.496 265.18 36.76 266.212 36.76C267.268 36.76 268.252 36.496 269.164 35.968C270.076 35.44 270.808 34.672 271.36 33.664C271.936 32.632 272.224 31.432 272.224 30.064ZM286.543 23.512V34.492C286.543 35.236 286.711 35.776 287.047 36.112C287.407 36.424 288.007 36.58 288.847 36.58H291.367V40H288.127C286.279 40 284.863 39.568 283.879 38.704C282.895 37.84 282.403 36.436 282.403 34.492V23.512H280.063V20.164H282.403V15.232H286.543V20.164H291.367V23.512H286.543ZM297.237 17.536C296.493 17.536 295.869 17.284 295.365 16.78C294.861 16.276 294.609 15.652 294.609 14.908C294.609 14.164 294.861 13.54 295.365 13.036C295.869 12.532 296.493 12.28 297.237 12.28C297.957 12.28 298.569 12.532 299.073 13.036C299.577 13.54 299.829 14.164 299.829 14.908C299.829 15.652 299.577 16.276 299.073 16.78C298.569 17.284 297.957 17.536 297.237 17.536ZM299.253 20.164V40H295.149V20.164H299.253ZM311.841 40.324C310.281 40.324 308.877 40.048 307.629 39.496C306.405 38.92 305.433 38.152 304.713 37.192C303.993 36.208 303.609 35.116 303.561 33.916H307.809C307.881 34.756 308.277 35.464 308.997 36.04C309.741 36.592 310.665 36.868 311.769 36.868C312.921 36.868 313.809 36.652 314.433 36.22C315.081 35.764 315.405 35.188 315.405 34.492C315.405 33.748 315.045 33.196 314.325 32.836C313.629 32.476 312.513 32.08 310.977 31.648C309.489 31.24 308.277 30.844 307.341 30.46C306.405 30.076 305.589 29.488 304.893 28.696C304.221 27.904 303.885 26.86 303.885 25.564C303.885 24.508 304.197 23.548 304.821 22.684C305.445 21.796 306.333 21.1 307.485 20.596C308.661 20.092 310.005 19.84 311.517 19.84C313.773 19.84 315.585 20.416 316.953 21.568C318.345 22.696 319.089 24.244 319.185 26.212H315.081C315.009 25.324 314.649 24.616 314.001 24.088C313.353 23.56 312.477 23.296 311.373 23.296C310.293 23.296 309.465 23.5 308.889 23.908C308.313 24.316 308.025 24.856 308.025 25.528C308.025 26.056 308.217 26.5 308.601 26.86C308.985 27.22 309.453 27.508 310.005 27.724C310.557 27.916 311.373 28.168 312.453 28.48C313.893 28.864 315.069 29.26 315.981 29.668C316.917 30.052 317.721 30.628 318.393 31.396C319.065 32.164 319.413 33.184 319.437 34.456C319.437 35.584 319.125 36.592 318.501 37.48C317.877 38.368 316.989 39.064 315.837 39.568C314.709 40.072 313.377 40.324 311.841 40.324ZM328.66 23.512V34.492C328.66 35.236 328.828 35.776 329.164 36.112C329.524 36.424 330.124 36.58 330.964 36.58H333.484V40H330.244C328.396 40 326.98 39.568 325.996 38.704C325.012 37.84 324.52 36.436 324.52 34.492V23.512H322.18V20.164H324.52V15.232H328.66V20.164H333.484V23.512H328.66ZM339.354 17.536C338.61 17.536 337.986 17.284 337.482 16.78C336.978 16.276 336.726 15.652 336.726 14.908C336.726 14.164 336.978 13.54 337.482 13.036C337.986 12.532 338.61 12.28 339.354 12.28C340.074 12.28 340.686 12.532 341.19 13.036C341.694 13.54 341.946 14.164 341.946 14.908C341.946 15.652 341.694 16.276 341.19 16.78C340.686 17.284 340.074 17.536 339.354 17.536ZM341.37 20.164V40H337.266V20.164H341.37ZM345.391 30.064C345.391 28.024 345.799 26.236 346.615 24.7C347.455 23.14 348.607 21.94 350.071 21.1C351.535 20.26 353.215 19.84 355.111 19.84C357.511 19.84 359.491 20.416 361.051 21.568C362.635 22.696 363.703 24.316 364.255 26.428H359.827C359.467 25.444 358.891 24.676 358.099 24.124C357.307 23.572 356.311 23.296 355.111 23.296C353.431 23.296 352.087 23.896 351.079 25.096C350.095 26.272 349.603 27.928 349.603 30.064C349.603 32.2 350.095 33.868 351.079 35.068C352.087 36.268 353.431 36.868 355.111 36.868C357.487 36.868 359.059 35.824 359.827 33.736H364.255C363.679 35.752 362.599 37.36 361.015 38.56C359.431 39.736 357.463 40.324 355.111 40.324C353.215 40.324 351.535 39.904 350.071 39.064C348.607 38.2 347.455 37 346.615 35.464C345.799 33.904 345.391 32.104 345.391 30.064ZM375.545 40.324C373.985 40.324 372.581 40.048 371.333 39.496C370.109 38.92 369.137 38.152 368.417 37.192C367.697 36.208 367.313 35.116 367.265 33.916H371.513C371.585 34.756 371.981 35.464 372.701 36.04C373.445 36.592 374.369 36.868 375.473 36.868C376.625 36.868 377.513 36.652 378.137 36.22C378.785 35.764 379.109 35.188 379.109 34.492C379.109 33.748 378.749 33.196 378.029 32.836C377.333 32.476 376.217 32.08 374.681 31.648C373.193 31.24 371.981 30.844 371.045 30.46C370.109 30.076 369.293 29.488 368.597 28.696C367.925 27.904 367.589 26.86 367.589 25.564C367.589 24.508 367.901 23.548 368.525 22.684C369.149 21.796 370.037 21.1 371.189 20.596C372.365 20.092 373.709 19.84 375.221 19.84C377.477 19.84 379.289 20.416 380.657 21.568C382.049 22.696 382.793 24.244 382.889 26.212H378.785C378.713 25.324 378.353 24.616 377.705 24.088C377.057 23.56 376.181 23.296 375.077 23.296C373.997 23.296 373.169 23.5 372.593 23.908C372.017 24.316 371.729 24.856 371.729 25.528C371.729 26.056 371.921 26.5 372.305 26.86C372.689 27.22 373.157 27.508 373.709 27.724C374.261 27.916 375.077 28.168 376.157 28.48C377.597 28.864 378.773 29.26 379.685 29.668C380.621 30.052 381.425 30.628 382.097 31.396C382.769 32.164 383.117 33.184 383.141 34.456C383.141 35.584 382.829 36.592 382.205 37.48C381.581 38.368 380.693 39.064 379.541 39.568C378.413 40.072 377.081 40.324 375.545 40.324Z" fill="black"/>
<path d="M71.864 61.7C71.864 60.464 72.134 59.36 72.674 58.388C73.214 57.404 73.952 56.642 74.888 56.102C75.824 55.55 76.868 55.274 78.02 55.274C79.424 55.274 80.624 55.61 81.62 56.282C82.628 56.942 83.36 57.878 83.816 59.09H82.34C81.98 58.238 81.428 57.572 80.684 57.092C79.952 56.612 79.064 56.372 78.02 56.372C77.096 56.372 76.262 56.588 75.518 57.02C74.786 57.452 74.21 58.076 73.79 58.892C73.37 59.696 73.16 60.632 73.16 61.7C73.16 62.768 73.37 63.704 73.79 64.508C74.21 65.312 74.786 65.93 75.518 66.362C76.262 66.794 77.096 67.01 78.02 67.01C79.064 67.01 79.952 66.776 80.684 66.308C81.428 65.828 81.98 65.168 82.34 64.328H83.816C83.36 65.528 82.628 66.458 81.62 67.118C80.612 67.778 79.412 68.108 78.02 68.108C76.868 68.108 75.824 67.838 74.888 67.298C73.952 66.746 73.214 65.984 72.674 65.012C72.134 64.04 71.864 62.936 71.864 61.7ZM90.6287 68.144C89.7047 68.144 88.8707 67.94 88.1267 67.532C87.3947 67.112 86.8127 66.524 86.3807 65.768C85.9607 65 85.7507 64.106 85.7507 63.086C85.7507 62.066 85.9667 61.178 86.3987 60.422C86.8307 59.654 87.4187 59.066 88.1627 58.658C88.9067 58.238 89.7407 58.028 90.6647 58.028C91.5887 58.028 92.4227 58.238 93.1667 58.658C93.9227 59.066 94.5107 59.654 94.9307 60.422C95.3627 61.178 95.5787 62.066 95.5787 63.086C95.5787 64.094 95.3627 64.982 94.9307 65.75C94.4987 66.518 93.9047 67.112 93.1487 67.532C92.3927 67.94 91.5527 68.144 90.6287 68.144ZM90.6287 67.046C91.2767 67.046 91.8767 66.902 92.4287 66.614C92.9807 66.314 93.4247 65.87 93.7607 65.282C94.1087 64.682 94.2827 63.95 94.2827 63.086C94.2827 62.222 94.1147 61.496 93.7787 60.908C93.4427 60.308 92.9987 59.864 92.4467 59.576C91.8947 59.276 91.2947 59.126 90.6467 59.126C89.9987 59.126 89.3987 59.276 88.8467 59.576C88.2947 59.864 87.8507 60.308 87.5147 60.908C87.1907 61.496 87.0287 62.222 87.0287 63.086C87.0287 63.95 87.1907 64.682 87.5147 65.282C87.8507 65.87 88.2887 66.314 88.8287 66.614C89.3807 66.902 89.9807 67.046 90.6287 67.046ZM101.26 68.144C100.132 68.144 99.2075 67.886 98.4875 67.37C97.7795 66.842 97.3835 66.128 97.2995 65.228H98.5955C98.6555 65.78 98.9135 66.23 99.3695 66.578C99.8375 66.914 100.462 67.082 101.242 67.082C101.926 67.082 102.46 66.92 102.844 66.596C103.24 66.272 103.438 65.87 103.438 65.39C103.438 65.054 103.33 64.778 103.114 64.562C102.898 64.346 102.622 64.178 102.286 64.058C101.962 63.926 101.518 63.788 100.954 63.644C100.222 63.452 99.6275 63.26 99.1715 63.068C98.7155 62.876 98.3255 62.594 98.0015 62.222C97.6895 61.838 97.5335 61.328 97.5335 60.692C97.5335 60.212 97.6775 59.768 97.9655 59.36C98.2535 58.952 98.6615 58.628 99.1895 58.388C99.7175 58.148 100.318 58.028 100.99 58.028C102.046 58.028 102.898 58.298 103.546 58.838C104.194 59.366 104.542 60.098 104.59 61.034H103.33C103.294 60.458 103.066 59.996 102.646 59.648C102.238 59.288 101.674 59.108 100.954 59.108C100.318 59.108 99.8015 59.258 99.4055 59.558C99.0095 59.858 98.8115 60.23 98.8115 60.674C98.8115 61.058 98.9255 61.376 99.1535 61.628C99.3935 61.868 99.6875 62.06 100.036 62.204C100.384 62.336 100.852 62.486 101.44 62.654C102.148 62.846 102.712 63.032 103.132 63.212C103.552 63.392 103.912 63.656 104.212 64.004C104.512 64.352 104.668 64.814 104.68 65.39C104.68 65.918 104.536 66.392 104.248 66.812C103.96 67.22 103.558 67.544 103.042 67.784C102.526 68.024 101.932 68.144 101.26 68.144ZM108.689 59.234V65.336C108.689 65.936 108.803 66.35 109.031 66.578C109.259 66.806 109.661 66.92 110.237 66.92H111.389V68H110.039C109.151 68 108.491 67.796 108.059 67.388C107.627 66.968 107.411 66.284 107.411 65.336V59.234H106.043V58.172H107.411V55.706H108.689V58.172H111.389V59.234H108.689ZM114.619 65.912L112.747 70.628H111.883L113.215 65.912H114.619ZM130.41 62.582C130.41 63.014 130.398 63.344 130.374 63.572H122.22C122.256 64.316 122.436 64.952 122.76 65.48C123.084 66.008 123.51 66.41 124.038 66.686C124.566 66.95 125.142 67.082 125.766 67.082C126.582 67.082 127.266 66.884 127.818 66.488C128.382 66.092 128.754 65.558 128.934 64.886H130.266C130.026 65.846 129.51 66.632 128.718 67.244C127.938 67.844 126.954 68.144 125.766 68.144C124.842 68.144 124.014 67.94 123.282 67.532C122.55 67.112 121.974 66.524 121.554 65.768C121.146 65 120.942 64.106 120.942 63.086C120.942 62.066 121.146 61.172 121.554 60.404C121.962 59.636 122.532 59.048 123.264 58.64C123.996 58.232 124.83 58.028 125.766 58.028C126.702 58.028 127.518 58.232 128.214 58.64C128.922 59.048 129.462 59.6 129.834 60.296C130.218 60.98 130.41 61.742 130.41 62.582ZM129.132 62.546C129.144 61.814 128.994 61.19 128.682 60.674C128.382 60.158 127.968 59.768 127.44 59.504C126.912 59.24 126.336 59.108 125.712 59.108C124.776 59.108 123.978 59.408 123.318 60.008C122.658 60.608 122.292 61.454 122.22 62.546H129.132ZM137.323 57.992C138.499 57.992 139.459 58.358 140.203 59.09C140.947 59.81 141.319 60.86 141.319 62.24V68H140.077V62.384C140.077 61.316 139.807 60.5 139.267 59.936C138.739 59.372 138.013 59.09 137.089 59.09C136.141 59.09 135.385 59.39 134.821 59.99C134.257 60.59 133.975 61.472 133.975 62.636V68H132.715V58.172H133.975V59.846C134.287 59.246 134.737 58.79 135.325 58.478C135.913 58.154 136.579 57.992 137.323 57.992ZM147.598 66.776L150.91 58.172H152.242L148.3 68H146.878L142.936 58.172H144.286L147.598 66.776ZM154.58 56.318C154.328 56.318 154.112 56.228 153.932 56.048C153.752 55.868 153.662 55.646 153.662 55.382C153.662 55.118 153.752 54.902 153.932 54.734C154.112 54.554 154.328 54.464 154.58 54.464C154.832 54.464 155.048 54.554 155.228 54.734C155.408 54.902 155.498 55.118 155.498 55.382C155.498 55.646 155.408 55.868 155.228 56.048C155.048 56.228 154.832 56.318 154.58 56.318ZM155.21 58.172V68H153.95V58.172H155.21ZM159.323 59.918C159.599 59.306 160.019 58.832 160.583 58.496C161.159 58.16 161.861 57.992 162.689 57.992V59.306H162.347C161.435 59.306 160.703 59.552 160.151 60.044C159.599 60.536 159.323 61.358 159.323 62.51V68H158.063V58.172H159.323V59.918ZM168.887 68.144C167.963 68.144 167.129 67.94 166.385 67.532C165.653 67.112 165.071 66.524 164.639 65.768C164.219 65 164.009 64.106 164.009 63.086C164.009 62.066 164.225 61.178 164.657 60.422C165.089 59.654 165.677 59.066 166.421 58.658C167.165 58.238 167.999 58.028 168.923 58.028C169.847 58.028 170.681 58.238 171.425 58.658C172.181 59.066 172.769 59.654 173.189 60.422C173.621 61.178 173.837 62.066 173.837 63.086C173.837 64.094 173.621 64.982 173.189 65.75C172.757 66.518 172.163 67.112 171.407 67.532C170.651 67.94 169.811 68.144 168.887 68.144ZM168.887 67.046C169.535 67.046 170.135 66.902 170.687 66.614C171.239 66.314 171.683 65.87 172.019 65.282C172.367 64.682 172.541 63.95 172.541 63.086C172.541 62.222 172.373 61.496 172.037 60.908C171.701 60.308 171.257 59.864 170.705 59.576C170.153 59.276 169.553 59.126 168.905 59.126C168.257 59.126 167.657 59.276 167.105 59.576C166.553 59.864 166.109 60.308 165.773 60.908C165.449 61.496 165.287 62.222 165.287 63.086C165.287 63.95 165.449 64.682 165.773 65.282C166.109 65.87 166.547 66.314 167.087 66.614C167.639 66.902 168.239 67.046 168.887 67.046ZM180.741 57.992C181.917 57.992 182.877 58.358 183.621 59.09C184.365 59.81 184.737 60.86 184.737 62.24V68H183.495V62.384C183.495 61.316 183.225 60.5 182.685 59.936C182.157 59.372 181.431 59.09 180.507 59.09C179.559 59.09 178.803 59.39 178.239 59.99C177.675 60.59 177.393 61.472 177.393 62.636V68H176.133V58.172H177.393V59.846C177.705 59.246 178.155 58.79 178.743 58.478C179.331 58.154 179.997 57.992 180.741 57.992ZM199.224 57.992C200.376 57.992 201.312 58.358 202.032 59.09C202.764 59.81 203.13 60.86 203.13 62.24V68H201.888V62.384C201.888 61.316 201.63 60.5 201.114 59.936C200.598 59.372 199.896 59.09 199.008 59.09C198.084 59.09 197.346 59.396 196.794 60.008C196.242 60.62 195.966 61.508 195.966 62.672V68H194.724V62.384C194.724 61.316 194.466 60.5 193.95 59.936C193.434 59.372 192.726 59.09 191.826 59.09C190.902 59.09 190.164 59.396 189.612 60.008C189.06 60.62 188.784 61.508 188.784 62.672V68H187.524V58.172H188.784V59.864C189.096 59.252 189.54 58.79 190.116 58.478C190.692 58.154 191.334 57.992 192.042 57.992C192.894 57.992 193.638 58.196 194.274 58.604C194.922 59.012 195.39 59.612 195.678 60.404C195.942 59.624 196.392 59.03 197.028 58.622C197.676 58.202 198.408 57.992 199.224 57.992ZM214.82 62.582C214.82 63.014 214.808 63.344 214.784 63.572H206.63C206.666 64.316 206.846 64.952 207.17 65.48C207.494 66.008 207.92 66.41 208.448 66.686C208.976 66.95 209.552 67.082 210.176 67.082C210.992 67.082 211.676 66.884 212.228 66.488C212.792 66.092 213.164 65.558 213.344 64.886H214.676C214.436 65.846 213.92 66.632 213.128 67.244C212.348 67.844 211.364 68.144 210.176 68.144C209.252 68.144 208.424 67.94 207.692 67.532C206.96 67.112 206.384 66.524 205.964 65.768C205.556 65 205.352 64.106 205.352 63.086C205.352 62.066 205.556 61.172 205.964 60.404C206.372 59.636 206.942 59.048 207.674 58.64C208.406 58.232 209.24 58.028 210.176 58.028C211.112 58.028 211.928 58.232 212.624 58.64C213.332 59.048 213.872 59.6 214.244 60.296C214.628 60.98 214.82 61.742 214.82 62.582ZM213.542 62.546C213.554 61.814 213.404 61.19 213.092 60.674C212.792 60.158 212.378 59.768 211.85 59.504C211.322 59.24 210.746 59.108 210.122 59.108C209.186 59.108 208.388 59.408 207.728 60.008C207.068 60.608 206.702 61.454 206.63 62.546H213.542ZM221.734 57.992C222.91 57.992 223.87 58.358 224.614 59.09C225.358 59.81 225.73 60.86 225.73 62.24V68H224.488V62.384C224.488 61.316 224.218 60.5 223.678 59.936C223.15 59.372 222.424 59.09 221.5 59.09C220.552 59.09 219.796 59.39 219.232 59.99C218.668 60.59 218.386 61.472 218.386 62.636V68H217.126V58.172H218.386V59.846C218.698 59.246 219.148 58.79 219.736 58.478C220.324 58.154 220.99 57.992 221.734 57.992ZM230.154 59.234V65.336C230.154 65.936 230.268 66.35 230.496 66.578C230.724 66.806 231.126 66.92 231.702 66.92H232.854V68H231.504C230.616 68 229.956 67.796 229.524 67.388C229.092 66.968 228.876 66.284 228.876 65.336V59.234H227.508V58.172H228.876V55.706H230.154V58.172H232.854V59.234H230.154ZM234.356 63.068C234.356 62.06 234.554 61.178 234.95 60.422C235.358 59.654 235.916 59.066 236.624 58.658C237.344 58.238 238.154 58.028 239.054 58.028C239.99 58.028 240.794 58.244 241.466 58.676C242.15 59.108 242.642 59.66 242.942 60.332V58.172H244.202V68H242.942V65.822C242.63 66.494 242.132 67.052 241.448 67.496C240.776 67.928 239.972 68.144 239.036 68.144C238.148 68.144 237.344 67.934 236.624 67.514C235.916 67.094 235.358 66.5 234.95 65.732C234.554 64.964 234.356 64.076 234.356 63.068ZM242.942 63.086C242.942 62.294 242.78 61.598 242.456 60.998C242.132 60.398 241.688 59.936 241.124 59.612C240.572 59.288 239.96 59.126 239.288 59.126C238.592 59.126 237.968 59.282 237.416 59.594C236.864 59.906 236.426 60.362 236.102 60.962C235.79 61.55 235.634 62.252 235.634 63.068C235.634 63.872 235.79 64.58 236.102 65.192C236.426 65.792 236.864 66.254 237.416 66.578C237.968 66.89 238.592 67.046 239.288 67.046C239.96 67.046 240.572 66.884 241.124 66.56C241.688 66.236 242.132 65.774 242.456 65.174C242.78 64.574 242.942 63.878 242.942 63.086ZM248.339 54.68V68H247.079V54.68H248.339ZM256.761 56.318C256.509 56.318 256.293 56.228 256.113 56.048C255.933 55.868 255.843 55.646 255.843 55.382C255.843 55.118 255.933 54.902 256.113 54.734C256.293 54.554 256.509 54.464 256.761 54.464C257.013 54.464 257.229 54.554 257.409 54.734C257.589 54.902 257.679 55.118 257.679 55.382C257.679 55.646 257.589 55.868 257.409 56.048C257.229 56.228 257.013 56.318 256.761 56.318ZM257.391 58.172V68H256.131V58.172H257.391ZM271.945 57.992C273.097 57.992 274.033 58.358 274.753 59.09C275.485 59.81 275.851 60.86 275.851 62.24V68H274.609V62.384C274.609 61.316 274.351 60.5 273.835 59.936C273.319 59.372 272.617 59.09 271.729 59.09C270.805 59.09 270.067 59.396 269.515 60.008C268.963 60.62 268.687 61.508 268.687 62.672V68H267.445V62.384C267.445 61.316 267.187 60.5 266.671 59.936C266.155 59.372 265.447 59.09 264.547 59.09C263.623 59.09 262.885 59.396 262.333 60.008C261.781 60.62 261.505 61.508 261.505 62.672V68H260.245V58.172H261.505V59.864C261.817 59.252 262.261 58.79 262.837 58.478C263.413 58.154 264.055 57.992 264.763 57.992C265.615 57.992 266.359 58.196 266.995 58.604C267.643 59.012 268.111 59.612 268.399 60.404C268.663 59.624 269.113 59.03 269.749 58.622C270.397 58.202 271.129 57.992 271.945 57.992ZM279.891 60.332C280.203 59.672 280.695 59.126 281.367 58.694C282.051 58.25 282.861 58.028 283.797 58.028C284.685 58.028 285.483 58.238 286.191 58.658C286.911 59.066 287.469 59.654 287.865 60.422C288.273 61.178 288.477 62.06 288.477 63.068C288.477 64.076 288.273 64.964 287.865 65.732C287.469 66.5 286.911 67.094 286.191 67.514C285.483 67.934 284.685 68.144 283.797 68.144C282.873 68.144 282.069 67.928 281.385 67.496C280.701 67.052 280.203 66.5 279.891 65.84V72.644H278.649V58.172H279.891V60.332ZM287.199 63.068C287.199 62.252 287.037 61.55 286.713 60.962C286.401 60.362 285.969 59.906 285.417 59.594C284.865 59.282 284.241 59.126 283.545 59.126C282.873 59.126 282.255 59.288 281.691 59.612C281.139 59.936 280.701 60.398 280.377 60.998C280.053 61.598 279.891 62.294 279.891 63.086C279.891 63.878 280.053 64.574 280.377 65.174C280.701 65.774 281.139 66.236 281.691 66.56C282.255 66.884 282.873 67.046 283.545 67.046C284.241 67.046 284.865 66.89 285.417 66.578C285.969 66.254 286.401 65.792 286.713 65.192C287.037 64.58 287.199 63.872 287.199 63.068ZM290.219 63.068C290.219 62.06 290.417 61.178 290.813 60.422C291.221 59.654 291.779 59.066 292.487 58.658C293.207 58.238 294.017 58.028 294.917 58.028C295.853 58.028 296.657 58.244 297.329 58.676C298.013 59.108 298.505 59.66 298.805 60.332V58.172H300.065V68H298.805V65.822C298.493 66.494 297.995 67.052 297.311 67.496C296.639 67.928 295.835 68.144 294.899 68.144C294.011 68.144 293.207 67.934 292.487 67.514C291.779 67.094 291.221 66.5 290.813 65.732C290.417 64.964 290.219 64.076 290.219 63.068ZM298.805 63.086C298.805 62.294 298.643 61.598 298.319 60.998C297.995 60.398 297.551 59.936 296.987 59.612C296.435 59.288 295.823 59.126 295.151 59.126C294.455 59.126 293.831 59.282 293.279 59.594C292.727 59.906 292.289 60.362 291.965 60.962C291.653 61.55 291.497 62.252 291.497 63.068C291.497 63.872 291.653 64.58 291.965 65.192C292.289 65.792 292.727 66.254 293.279 66.578C293.831 66.89 294.455 67.046 295.151 67.046C295.823 67.046 296.435 66.884 296.987 66.56C297.551 66.236 297.995 65.774 298.319 65.174C298.643 64.574 298.805 63.878 298.805 63.086ZM302.366 63.086C302.366 62.066 302.57 61.178 302.978 60.422C303.386 59.654 303.95 59.066 304.67 58.658C305.39 58.238 306.212 58.028 307.136 58.028C308.348 58.028 309.344 58.328 310.124 58.928C310.916 59.528 311.426 60.344 311.654 61.376H310.304C310.136 60.668 309.77 60.116 309.206 59.72C308.654 59.312 307.964 59.108 307.136 59.108C306.476 59.108 305.882 59.258 305.354 59.558C304.826 59.858 304.406 60.308 304.094 60.908C303.794 61.496 303.644 62.222 303.644 63.086C303.644 63.95 303.794 64.682 304.094 65.282C304.406 65.882 304.826 66.332 305.354 66.632C305.882 66.932 306.476 67.082 307.136 67.082C307.964 67.082 308.654 66.884 309.206 66.488C309.77 66.08 310.136 65.516 310.304 64.796H311.654C311.426 65.804 310.916 66.614 310.124 67.226C309.332 67.838 308.336 68.144 307.136 68.144C306.212 68.144 305.39 67.94 304.67 67.532C303.95 67.112 303.386 66.524 302.978 65.768C302.57 65 302.366 64.106 302.366 63.086ZM315.619 59.234V65.336C315.619 65.936 315.733 66.35 315.961 66.578C316.189 66.806 316.591 66.92 317.167 66.92H318.319V68H316.969C316.081 68 315.421 67.796 314.989 67.388C314.557 66.968 314.341 66.284 314.341 65.336V59.234H312.973V58.172H314.341V55.706H315.619V58.172H318.319V59.234H315.619ZM321.549 65.912L319.677 70.628H318.813L320.145 65.912H321.549ZM327.872 63.068C327.872 62.06 328.07 61.178 328.466 60.422C328.874 59.654 329.432 59.066 330.14 58.658C330.86 58.238 331.67 58.028 332.57 58.028C333.506 58.028 334.31 58.244 334.982 58.676C335.666 59.108 336.158 59.66 336.458 60.332V58.172H337.718V68H336.458V65.822C336.146 66.494 335.648 67.052 334.964 67.496C334.292 67.928 333.488 68.144 332.552 68.144C331.664 68.144 330.86 67.934 330.14 67.514C329.432 67.094 328.874 66.5 328.466 65.732C328.07 64.964 327.872 64.076 327.872 63.068ZM336.458 63.086C336.458 62.294 336.296 61.598 335.972 60.998C335.648 60.398 335.204 59.936 334.64 59.612C334.088 59.288 333.476 59.126 332.804 59.126C332.108 59.126 331.484 59.282 330.932 59.594C330.38 59.906 329.942 60.362 329.618 60.962C329.306 61.55 329.15 62.252 329.15 63.068C329.15 63.872 329.306 64.58 329.618 65.192C329.942 65.792 330.38 66.254 330.932 66.578C331.484 66.89 332.108 67.046 332.804 67.046C333.476 67.046 334.088 66.884 334.64 66.56C335.204 66.236 335.648 65.774 335.972 65.174C336.296 64.574 336.458 63.878 336.458 63.086ZM345.202 57.992C346.378 57.992 347.338 58.358 348.082 59.09C348.826 59.81 349.198 60.86 349.198 62.24V68H347.956V62.384C347.956 61.316 347.686 60.5 347.146 59.936C346.618 59.372 345.892 59.09 344.968 59.09C344.02 59.09 343.264 59.39 342.7 59.99C342.136 60.59 341.854 61.472 341.854 62.636V68H340.594V58.172H341.854V59.846C342.166 59.246 342.616 58.79 343.204 58.478C343.792 58.154 344.458 57.992 345.202 57.992ZM351.409 63.068C351.409 62.06 351.613 61.178 352.021 60.422C352.429 59.654 352.987 59.066 353.695 58.658C354.415 58.238 355.225 58.028 356.125 58.028C356.989 58.028 357.769 58.238 358.465 58.658C359.161 59.078 359.671 59.624 359.995 60.296V54.68H361.255V68H359.995V65.804C359.695 66.488 359.203 67.052 358.519 67.496C357.835 67.928 357.031 68.144 356.107 68.144C355.207 68.144 354.397 67.934 353.677 67.514C352.969 67.094 352.411 66.5 352.003 65.732C351.607 64.964 351.409 64.076 351.409 63.068ZM359.995 63.086C359.995 62.294 359.833 61.598 359.509 60.998C359.185 60.398 358.741 59.936 358.177 59.612C357.625 59.288 357.013 59.126 356.341 59.126C355.645 59.126 355.021 59.282 354.469 59.594C353.917 59.906 353.479 60.362 353.155 60.962C352.843 61.55 352.687 62.252 352.687 63.068C352.687 63.872 352.843 64.58 353.155 65.192C353.479 65.792 353.917 66.254 354.469 66.578C355.021 66.89 355.645 67.046 356.341 67.046C357.013 67.046 357.625 66.884 358.177 66.56C358.741 66.236 359.185 65.774 359.509 65.174C359.833 64.574 359.995 63.878 359.995 63.086ZM372.941 59.234H370.655V68H369.395V59.234H368.027V58.172H369.395V57.488C369.395 56.42 369.665 55.634 370.205 55.13C370.757 54.626 371.645 54.374 372.869 54.374V55.454C372.053 55.454 371.477 55.61 371.141 55.922C370.817 56.234 370.655 56.756 370.655 57.488V58.172H372.941V59.234ZM383.816 62.582C383.816 63.014 383.804 63.344 383.78 63.572H375.626C375.662 64.316 375.842 64.952 376.166 65.48C376.49 66.008 376.916 66.41 377.444 66.686C377.972 66.95 378.548 67.082 379.172 67.082C379.988 67.082 380.672 66.884 381.224 66.488C381.788 66.092 382.16 65.558 382.34 64.886H383.672C383.432 65.846 382.916 66.632 382.124 67.244C381.344 67.844 380.36 68.144 379.172 68.144C378.248 68.144 377.42 67.94 376.688 67.532C375.956 67.112 375.38 66.524 374.96 65.768C374.552 65 374.348 64.106 374.348 63.086C374.348 62.066 374.552 61.172 374.96 60.404C375.368 59.636 375.938 59.048 376.67 58.64C377.402 58.232 378.236 58.028 379.172 58.028C380.108 58.028 380.924 58.232 381.62 58.64C382.328 59.048 382.868 59.6 383.24 60.296C383.624 60.98 383.816 61.742 383.816 62.582ZM382.538 62.546C382.55 61.814 382.4 61.19 382.088 60.674C381.788 60.158 381.374 59.768 380.846 59.504C380.318 59.24 379.742 59.108 379.118 59.108C378.182 59.108 377.384 59.408 376.724 60.008C376.064 60.608 375.698 61.454 375.626 62.546H382.538ZM385.546 63.068C385.546 62.06 385.744 61.178 386.14 60.422C386.548 59.654 387.106 59.066 387.814 58.658C388.534 58.238 389.344 58.028 390.244 58.028C391.18 58.028 391.984 58.244 392.656 58.676C393.34 59.108 393.832 59.66 394.132 60.332V58.172H395.392V68H394.132V65.822C393.82 66.494 393.322 67.052 392.638 67.496C391.966 67.928 391.162 68.144 390.226 68.144C389.338 68.144 388.534 67.934 387.814 67.514C387.106 67.094 386.548 66.5 386.14 65.732C385.744 64.964 385.546 64.076 385.546 63.068ZM394.132 63.086C394.132 62.294 393.97 61.598 393.646 60.998C393.322 60.398 392.878 59.936 392.314 59.612C391.762 59.288 391.15 59.126 390.478 59.126C389.782 59.126 389.158 59.282 388.606 59.594C388.054 59.906 387.616 60.362 387.292 60.962C386.98 61.55 386.824 62.252 386.824 63.068C386.824 63.872 386.98 64.58 387.292 65.192C387.616 65.792 388.054 66.254 388.606 66.578C389.158 66.89 389.782 67.046 390.478 67.046C391.15 67.046 391.762 66.884 392.314 66.56C392.878 66.236 393.322 65.774 393.646 65.174C393.97 64.574 394.132 63.878 394.132 63.086ZM401.652 68.144C400.524 68.144 399.6 67.886 398.88 67.37C398.172 66.842 397.776 66.128 397.692 65.228H398.988C399.048 65.78 399.306 66.23 399.762 66.578C400.23 66.914 400.854 67.082 401.634 67.082C402.318 67.082 402.852 66.92 403.236 66.596C403.632 66.272 403.83 65.87 403.83 65.39C403.83 65.054 403.722 64.778 403.506 64.562C403.29 64.346 403.014 64.178 402.678 64.058C402.354 63.926 401.91 63.788 401.346 63.644C400.614 63.452 400.02 63.26 399.564 63.068C399.108 62.876 398.718 62.594 398.394 62.222C398.082 61.838 397.926 61.328 397.926 60.692C397.926 60.212 398.07 59.768 398.358 59.36C398.646 58.952 399.054 58.628 399.582 58.388C400.11 58.148 400.71 58.028 401.382 58.028C402.438 58.028 403.29 58.298 403.938 58.838C404.586 59.366 404.934 60.098 404.982 61.034H403.722C403.686 60.458 403.458 59.996 403.038 59.648C402.63 59.288 402.066 59.108 401.346 59.108C400.71 59.108 400.194 59.258 399.798 59.558C399.402 59.858 399.204 60.23 399.204 60.674C399.204 61.058 399.318 61.376 399.546 61.628C399.786 61.868 400.08 62.06 400.428 62.204C400.776 62.336 401.244 62.486 401.832 62.654C402.54 62.846 403.104 63.032 403.524 63.212C403.944 63.392 404.304 63.656 404.604 64.004C404.904 64.352 405.06 64.814 405.072 65.39C405.072 65.918 404.928 66.392 404.64 66.812C404.352 67.22 403.95 67.544 403.434 67.784C402.918 68.024 402.324 68.144 401.652 68.144ZM408.074 56.318C407.822 56.318 407.606 56.228 407.426 56.048C407.246 55.868 407.156 55.646 407.156 55.382C407.156 55.118 407.246 54.902 407.426 54.734C407.606 54.554 407.822 54.464 408.074 54.464C408.326 54.464 408.542 54.554 408.722 54.734C408.902 54.902 408.992 55.118 408.992 55.382C408.992 55.646 408.902 55.868 408.722 56.048C408.542 56.228 408.326 56.318 408.074 56.318ZM408.704 58.172V68H407.444V58.172H408.704ZM412.799 60.35C413.123 59.666 413.621 59.108 414.293 58.676C414.977 58.244 415.781 58.028 416.705 58.028C417.605 58.028 418.409 58.238 419.117 58.658C419.825 59.066 420.377 59.654 420.773 60.422C421.181 61.178 421.385 62.06 421.385 63.068C421.385 64.076 421.181 64.964 420.773 65.732C420.377 66.5 419.819 67.094 419.099 67.514C418.391 67.934 417.593 68.144 416.705 68.144C415.769 68.144 414.959 67.934 414.275 67.514C413.603 67.082 413.111 66.524 412.799 65.84V68H411.557V54.68H412.799V60.35ZM420.107 63.068C420.107 62.252 419.945 61.55 419.621 60.962C419.309 60.362 418.877 59.906 418.325 59.594C417.773 59.282 417.149 59.126 416.453 59.126C415.781 59.126 415.163 59.288 414.599 59.612C414.047 59.936 413.609 60.398 413.285 60.998C412.961 61.598 412.799 62.294 412.799 63.086C412.799 63.878 412.961 64.574 413.285 65.174C413.609 65.774 414.047 66.236 414.599 66.56C415.163 66.884 415.781 67.046 416.453 67.046C417.149 67.046 417.773 66.89 418.325 66.578C418.877 66.254 419.309 65.792 419.621 65.192C419.945 64.58 420.107 63.872 420.107 63.068ZM424.334 56.318C424.082 56.318 423.866 56.228 423.686 56.048C423.506 55.868 423.416 55.646 423.416 55.382C423.416 55.118 423.506 54.902 423.686 54.734C423.866 54.554 424.082 54.464 424.334 54.464C424.586 54.464 424.802 54.554 424.982 54.734C425.162 54.902 425.252 55.118 425.252 55.382C425.252 55.646 425.162 55.868 424.982 56.048C424.802 56.228 424.586 56.318 424.334 56.318ZM424.964 58.172V68H423.704V58.172H424.964ZM429.077 54.68V68H427.817V54.68H429.077ZM432.56 56.318C432.308 56.318 432.092 56.228 431.912 56.048C431.732 55.868 431.642 55.646 431.642 55.382C431.642 55.118 431.732 54.902 431.912 54.734C432.092 54.554 432.308 54.464 432.56 54.464C432.812 54.464 433.028 54.554 433.208 54.734C433.388 54.902 433.478 55.118 433.478 55.382C433.478 55.646 433.388 55.868 433.208 56.048C433.028 56.228 432.812 56.318 432.56 56.318ZM433.19 58.172V68H431.93V58.172H433.19ZM437.682 59.234V65.336C437.682 65.936 437.796 66.35 438.024 66.578C438.252 66.806 438.654 66.92 439.23 66.92H440.382V68H439.032C438.144 68 437.484 67.796 437.052 67.388C436.62 66.968 436.404 66.284 436.404 65.336V59.234H435.036V58.172H436.404V55.706H437.682V58.172H440.382V59.234H437.682ZM450.56 58.172L444.728 72.626H443.414L445.322 67.946L441.29 58.172H442.676L446.024 66.56L449.264 58.172H450.56Z" fill="black"/>
<path d="M29.5 52.2321L14.3571 37.0893M29.5 69.2679V38.9821V69.2679ZM29.5 40.875V52.2321V40.875ZM29.5 40.875C29.5 36.8589 27.9046 33.0072 25.0648 30.1674C22.2249 27.3275 18.3733 25.7321 14.3571 25.7321H3V37.0893C3 41.1054 4.5954 44.9571 7.43524 47.7969C10.2751 50.6367 14.1267 52.2321 18.1429 52.2321H29.5V40.875ZM29.5 40.875H40.8571C44.8733 40.875 48.7249 39.2796 51.5648 36.4398C54.4046 33.5999 56 29.7483 56 25.7321V14.375H44.6429C40.6267 14.375 36.7751 15.9704 33.9352 18.8102C31.0954 21.6501 29.5 25.5017 29.5 29.5179V40.875ZM29.5 40.875L44.6429 25.7321L29.5 40.875Z" stroke="black" stroke-width="4.5"/>
</svg>
