<svg width="35" height="41" viewBox="0 0 35 41" fill="none" xmlns="http://www.w3.org/2000/svg">
<path d="M11.5087 0C9.98815 0 8.52985 0.604046 7.45464 1.67925C6.37944 2.75446 5.77539 4.21276 5.77539 5.73333V15.7667C5.77539 16.1468 5.9264 16.5114 6.1952 16.7802C6.46401 17.049 6.82858 17.2 7.20872 17.2H12.9421C13.3222 17.2 13.6868 17.049 13.9556 16.7802C14.2244 16.5114 14.3754 16.1468 14.3754 15.7667V10.0333C14.3754 9.65319 14.5264 9.28862 14.7952 9.01981C15.064 8.75101 15.4286 8.6 15.8087 8.6H34.4421V0H11.5087Z" fill="white"/>
<path d="M14.3754 40.1332H5.77538C5.45773 40.1298 5.15023 40.0209 4.90117 39.8237C4.6521 39.6266 4.4756 39.3522 4.39938 39.0439L0.0420449 21.8439C-0.0111162 21.6292 -0.0139034 21.4052 0.0339014 21.1894C0.0817063 20.9735 0.178807 20.7716 0.317608 20.5995C0.45641 20.4274 0.633147 20.2897 0.833997 20.1972C1.03485 20.1048 1.25437 20.06 1.47538 20.0665H18.6754C18.8964 20.06 19.1159 20.1048 19.3168 20.1972C19.5176 20.2897 19.6943 20.4274 19.8332 20.5995C19.972 20.7716 20.0691 20.9735 20.1169 21.1894C20.1647 21.4052 20.1619 21.6292 20.1087 21.8439L15.8087 39.0439C15.7302 39.3619 15.5452 39.6434 15.2844 39.8416C15.0236 40.0398 14.7028 40.1427 14.3754 40.1332ZM4.77205 28.6665H15.4074L16.8407 22.9332H3.31005L4.77205 28.6665Z" fill="white"/>
</svg>
