<svg width="46" height="46" viewBox="0 0 46 46" fill="none" xmlns="http://www.w3.org/2000/svg">
<path d="M36.6562 27.3125C33.7924 27.3152 30.9883 28.1316 28.5705 29.6666C26.1528 31.2015 24.2209 33.3919 23 35.9824C21.7791 33.3919 19.8472 31.2015 17.4295 29.6666C15.0117 28.1316 12.2076 27.3152 9.34375 27.3125H1.4375V28.75C1.4375 37.0728 8.20848 43.8438 16.5312 43.8438H29.4688C37.7915 43.8438 44.5625 37.0728 44.5625 28.75V27.3125H36.6562ZM16.5312 40.9688C10.2798 40.9688 5.10995 36.2502 4.39659 30.1875H9.34375C15.5952 30.1875 20.765 34.906 21.4784 40.9688H16.5312ZM29.4688 40.9688H24.5216C25.235 34.906 30.4048 30.1875 36.6562 30.1875H41.6034C40.89 36.2502 35.7202 40.9688 29.4688 40.9688Z" fill="black"/>
<path d="M15.204 23.6084C15.4759 25.225 16.2471 26.7159 17.4094 27.8718L17.8305 28.2928H18.4259C20.0651 28.2974 21.6647 27.7885 23 26.8377C24.3353 27.7886 25.9348 28.2976 27.5741 28.2932H28.1695L28.5906 27.8722C29.7529 26.7162 30.5241 25.2254 30.796 23.6088C32.4126 23.3369 33.9034 22.5657 35.0594 21.4034L35.4804 20.9823V20.3869C35.485 18.7475 34.9762 17.1479 34.0253 15.8124C34.9762 14.4771 35.4852 12.8776 35.4807 11.2383V10.6429L35.0597 10.2218C33.9038 9.0595 32.4129 8.2883 30.7964 8.01642C30.5245 6.39986 29.7533 4.90901 28.591 3.75306L28.1699 3.33205H27.5745C25.9351 3.32742 24.3354 3.83627 23 4.78716C21.6647 3.8362 20.0652 3.32723 18.4259 3.33169H17.8305L17.4094 3.7527C16.2471 4.90865 15.4759 6.3995 15.204 8.01606C13.5874 8.28794 12.0966 9.05914 10.9406 10.2215L10.5196 10.6425V11.2379C10.515 12.8773 11.0238 14.477 11.9747 15.8124C11.0238 17.1477 10.5148 18.7473 10.5193 20.3866V20.9819L10.9403 21.403C12.0963 22.5654 13.5873 23.3366 15.204 23.6084ZM14.8683 14.796C14.0711 14.0036 13.5646 12.9653 13.4308 11.8491C14.3146 11.1542 15.407 10.778 16.5312 10.7812H17.9687V9.34368C17.9655 8.21957 18.3417 7.12725 19.0364 6.24353C20.1526 6.37729 21.1909 6.88378 21.9833 7.68103L23 8.6968L24.0164 7.6804C24.8088 6.88316 25.8472 6.37666 26.9633 6.2429C27.6582 7.12676 28.0345 8.21932 28.0312 9.34368V10.7812H29.4687C30.5928 10.7779 31.6852 11.1541 32.5689 11.8489C32.4351 12.965 31.9286 14.0033 31.1314 14.7958L30.1156 15.8124L31.1321 16.8289C31.9294 17.6214 32.4358 18.6597 32.5696 19.7758C31.6857 20.4708 30.5931 20.847 29.4687 20.8437H28.0312V22.2812C28.0345 23.4053 27.6583 24.4976 26.9635 25.3813C25.8474 25.2476 24.8091 24.7411 24.0167 23.9438L23 22.9281L21.9835 23.9442C21.191 24.7414 20.1527 25.2479 19.0366 25.3817C18.3417 24.4979 17.9655 23.4054 17.9687 22.2812V20.8437H16.5312C15.4071 20.8469 14.3148 20.4707 13.4311 19.776C13.5648 18.6599 14.0713 17.6216 14.8686 16.8291L15.8844 15.8124L14.8683 14.796Z" fill="black"/>
</svg>
