<svg width="45" height="36" viewBox="0 0 45 36" fill="none" xmlns="http://www.w3.org/2000/svg">
<path d="M43.7516 0.5C43.5984 0.5 43.4406 0.528906 43.2859 0.590625L30.0008 5.5H30L16.5625 0.75625C16.0525 0.58674 15.5187 0.500223 14.9812 0.5C14.4586 0.5 13.9367 0.582031 13.4336 0.745312L1.57188 4.87109C1.10795 5.05665 0.710258 5.37694 0.430086 5.79065C0.149913 6.20437 0.00011111 6.69253 0 7.19219L0 34.2484C0 34.9664 0.588281 35.5 1.24922 35.5C1.40234 35.5 1.55938 35.4711 1.71484 35.4094L15 30.5L28.4375 35.243C29.4523 35.5816 30.5491 35.5857 31.5664 35.2547L43.4281 31.1289C43.8921 30.9434 44.2899 30.6232 44.57 30.2094C44.8502 29.7957 45 29.3075 45 28.8078V1.75156C45 1.03359 44.4117 0.5 43.7516 0.5ZM17.5 5.06406L27.5 8.59453V30.9359L17.5 27.4055V5.06406ZM3.75 30.6602V8.08359L13.75 4.60469V26.9641L13.7 26.982L3.75 30.6602ZM41.25 27.9156L31.25 31.3945V9.03594L31.3 9.01719L41.25 5.33984V27.9156Z" fill="black"/>
</svg>
