<svg width="28" height="28" viewBox="0 0 28 28" fill="none" xmlns="http://www.w3.org/2000/svg">
<path d="M13.734 0.454468C18.5703 0.454468 21.3132 3.54266 21.7115 7.27046H21.8331C24.9449 7.27046 27.468 9.69745 27.468 12.6915C27.468 15.6855 24.9449 18.1125 21.8331 18.1125L20.4538 18.1105V18.1125H20.395L18.5174 21.5283C18.3895 21.7515 18.179 21.9155 17.9314 21.9851C17.6837 22.0546 17.4186 22.0241 17.1933 21.9001C16.9679 21.7761 16.8003 21.5685 16.7264 21.3221C16.6526 21.0757 16.6786 20.8101 16.7986 20.5826L18.1583 18.1105H14.5914V18.1125H14.511L12.6314 21.5283C12.5035 21.7515 12.293 21.9155 12.0454 21.9851C11.7977 22.0546 11.5326 22.0241 11.3073 21.9001C11.0819 21.7761 10.9143 21.5685 10.8404 21.3221C10.7666 21.0757 10.7926 20.8101 10.9126 20.5826L12.2723 18.1105H8.69558V18.1125H8.62495L6.74536 21.5283C6.61747 21.7515 6.40703 21.9155 6.15937 21.9851C5.91171 22.0546 5.64665 22.0241 5.42128 21.9001C5.19591 21.7761 5.02826 21.5685 4.95445 21.3221C4.88063 21.0757 4.90656 20.8101 5.02664 20.5826L6.38631 18.1105L5.63486 18.1125C2.52313 18.1125 0 15.6855 0 12.6915C0 9.80732 2.3387 7.45096 5.29151 7.28027L5.75651 7.27046C6.15872 3.51715 8.89767 0.454468 13.734 0.454468ZM8.06382 16.1505H21.9371C23.9109 16.1505 25.506 14.6221 25.506 12.7366C25.506 10.8531 23.9089 9.32467 21.9391 9.32467H20.86C20.291 9.32467 19.7907 8.89695 19.7907 8.35152C19.7907 4.86504 16.9713 2.41647 13.734 2.41647C10.4967 2.41647 7.67731 4.90821 7.67731 8.35152C7.67731 8.89695 7.17896 9.32467 6.60802 9.32467H5.52892C3.55907 9.32467 1.962 10.8531 1.962 12.7385C1.962 14.6201 3.55907 16.1505 5.52892 16.1505H8.02654C8.03962 16.1503 8.0527 16.1503 8.06578 16.1505H8.06382Z" fill="white"/>
<path d="M9.31552 22.6567C9.5413 22.7858 9.70657 22.9993 9.775 23.2502C9.84344 23.5011 9.80943 23.7689 9.68045 23.9948L7.71845 27.4283C7.58614 27.6476 7.37328 27.8065 7.12536 27.871C6.87745 27.9354 6.61416 27.9004 6.39175 27.7733C6.16934 27.6462 6.00547 27.4372 5.93515 27.1909C5.86483 26.9445 5.89365 26.6805 6.01544 26.4551L7.97744 23.0216C8.10654 22.7959 8.32001 22.6306 8.57093 22.5622C8.82185 22.4937 9.08967 22.5277 9.31552 22.6567Z" fill="white"/>
<path d="M15.5666 23.9948C15.6884 23.7694 15.7172 23.5054 15.6468 23.2591C15.5765 23.0127 15.4127 22.8037 15.1902 22.6766C14.9678 22.5495 14.7045 22.5145 14.4566 22.5789C14.2087 22.6434 13.9959 22.8023 13.8635 23.0216L11.9015 26.4551C11.7798 26.6805 11.7509 26.9445 11.8213 27.1909C11.8916 27.4372 12.0555 27.6462 12.2779 27.7733C12.5003 27.9004 12.7636 27.9354 13.0115 27.871C13.2594 27.8065 13.4722 27.6476 13.6046 27.4283L15.5666 23.9948Z" fill="white"/>
</svg>
