<svg width="11" height="11" viewBox="0 0 11 11" fill="none" xmlns="http://www.w3.org/2000/svg">
<path d="M5.65278 1.27997e-05C8.76944 1.27997e-05 11 2.4689 11 5.50001C11 8.53112 8.76944 11 5.65278 11C4.73161 11.0034 3.82336 10.7833 3.00592 10.3587C2.18848 9.93397 1.48625 9.31735 0.959444 8.56168L2.54222 7.63279C3.21444 8.54946 4.29 9.16668 5.5 9.16668C7.51667 9.16668 9.16667 7.46168 9.16667 5.50001C9.16667 3.53835 7.51667 1.83335 5.5 1.83335C4.29611 1.83335 3.22667 2.44446 2.55444 3.35501L3.66667 4.27779L0 5.50001V1.22224L1.155 2.18779C1.68866 1.50475 2.37126 0.952604 3.15074 0.573456C3.93021 0.194309 4.78598 -0.0018252 5.65278 1.27997e-05V1.27997e-05Z" fill="#333333"/>
</svg>
