<svg width="46" height="38" viewBox="0 0 46 38" fill="none" xmlns="http://www.w3.org/2000/svg">
<path d="M42.4444 0.944336H3.55555C2.81884 0.944336 2.1123 1.23699 1.59136 1.75793C1.07043 2.27886 0.777771 2.9854 0.777771 3.72211V34.2777C0.777771 35.0144 1.07043 35.7209 1.59136 36.2418C2.1123 36.7628 2.81884 37.0554 3.55555 37.0554H42.4444C43.1811 37.0554 43.8877 36.7628 44.4086 36.2418C44.9296 35.7209 45.2222 35.0144 45.2222 34.2777V3.72211C45.2222 2.9854 44.9296 2.27886 44.4086 1.75793C43.8877 1.23699 43.1811 0.944336 42.4444 0.944336ZM3.55555 34.2777V3.72211H42.4444V34.2777H3.55555Z" fill="black"/>
<path d="M10.6403 15.9444C10.8486 16.1522 11.1308 16.2689 11.425 16.2689C11.7192 16.2689 12.0014 16.1522 12.2097 15.9444L13.8208 14.3333L15.4319 15.9444C15.533 16.056 15.6557 16.1458 15.7925 16.2085C15.9293 16.2712 16.0775 16.3054 16.228 16.3091C16.3784 16.3129 16.5281 16.2859 16.6679 16.2301C16.8076 16.1742 16.9346 16.0905 17.041 15.984C17.1474 15.8776 17.2311 15.7507 17.287 15.6109C17.3429 15.4711 17.3698 15.3215 17.3661 15.171C17.3624 15.0206 17.3281 14.8724 17.2655 14.7356C17.2028 14.5987 17.1129 14.476 17.0014 14.375L15.4042 12.8055L17.0153 11.1944C17.1268 11.0934 17.2166 10.9707 17.2793 10.8339C17.342 10.697 17.3763 10.5489 17.38 10.3984C17.3837 10.2479 17.3568 10.0983 17.3009 9.9585C17.245 9.81874 17.1613 9.6918 17.0549 9.58537C16.9484 9.47893 16.8215 9.39524 16.6817 9.33935C16.542 9.28347 16.3923 9.25656 16.2419 9.26027C16.0914 9.26397 15.9432 9.29821 15.8064 9.3609C15.6696 9.4236 15.5469 9.51344 15.4458 9.62498L13.8347 11.2361L12.2097 9.58332C12.1086 9.47178 11.986 9.38193 11.8491 9.31924C11.7123 9.25654 11.5641 9.2223 11.4137 9.2186C11.2632 9.21489 11.1135 9.2418 10.9738 9.29768C10.834 9.35357 10.7071 9.43727 10.6006 9.5437C10.4942 9.65013 10.4105 9.77708 10.3546 9.91684C10.2987 10.0566 10.2718 10.2063 10.2755 10.3567C10.2792 10.5072 10.3135 10.6553 10.3762 10.7922C10.4389 10.929 10.5287 11.0517 10.6403 11.1528L12.2514 12.8055L10.6403 14.375C10.4325 14.5833 10.3158 14.8655 10.3158 15.1597C10.3158 15.4539 10.4325 15.7361 10.6403 15.9444Z" fill="black"/>
<path d="M19.0778 29.4666C19.2861 29.6744 19.5683 29.7911 19.8625 29.7911C20.1567 29.7911 20.4389 29.6744 20.6472 29.4666L22.2583 27.8555L23.8694 29.4666C23.9705 29.5782 24.0932 29.668 24.23 29.7307C24.3668 29.7934 24.515 29.8277 24.6655 29.8314C24.8159 29.8351 24.9656 29.8082 25.1053 29.7523C25.2451 29.6964 25.3721 29.6127 25.4785 29.5063C25.5849 29.3998 25.6686 29.2729 25.7245 29.1331C25.7804 28.9934 25.8073 28.8437 25.8036 28.6932C25.7999 28.5428 25.7656 28.3946 25.7029 28.2578C25.6403 28.1209 25.5504 27.9983 25.4389 27.8972L23.8417 26.3278L25.4528 24.7166C25.5643 24.6156 25.6541 24.4929 25.7168 24.3561C25.7795 24.2192 25.8138 24.0711 25.8175 23.9206C25.8212 23.7701 25.7943 23.6205 25.7384 23.4807C25.6825 23.341 25.5988 23.214 25.4924 23.1076C25.3859 23.0012 25.259 22.9175 25.1192 22.8616C24.9795 22.8057 24.8298 22.7788 24.6794 22.7825C24.5289 22.7862 24.3807 22.8204 24.2439 22.8831C24.1071 22.9458 23.9844 23.0357 23.8833 23.1472L22.2722 24.7583L20.6472 23.1055C20.5461 22.994 20.4235 22.9041 20.2866 22.8415C20.1498 22.7788 20.0016 22.7445 19.8512 22.7408C19.7007 22.7371 19.551 22.764 19.4113 22.8199C19.2715 22.8758 19.1446 22.9595 19.0381 23.0659C18.9317 23.1723 18.848 23.2993 18.7921 23.4391C18.7362 23.5788 18.7093 23.7285 18.713 23.8789C18.7167 24.0294 18.751 24.1776 18.8137 24.3144C18.8764 24.4512 18.9662 24.5739 19.0778 24.675L20.6889 26.3278L19.0778 27.8972C18.87 28.1055 18.7533 28.3877 18.7533 28.6819C18.7533 28.9761 18.87 29.2583 19.0778 29.4666Z" fill="black"/>
<path d="M29.8222 22.2542C30.0305 22.462 30.3127 22.5787 30.6069 22.5787C30.9011 22.5787 31.1834 22.462 31.3917 22.2542L33.0028 20.6431L34.6139 22.2542C34.7149 22.3658 34.8376 22.4556 34.9745 22.5183C35.1113 22.581 35.2594 22.6153 35.4099 22.619C35.5604 22.6227 35.71 22.5958 35.8498 22.5399C35.9896 22.484 36.1165 22.4003 36.2229 22.2939C36.3294 22.1874 36.4131 22.0605 36.4689 21.9207C36.5248 21.781 36.5517 21.6313 36.548 21.4808C36.5443 21.3304 36.5101 21.1822 36.4474 21.0454C36.3847 20.9085 36.2949 20.7859 36.1833 20.6848L34.5861 19.1154L36.1972 17.5042C36.3087 17.4032 36.3986 17.2805 36.4613 17.1437C36.524 17.0068 36.5582 16.8587 36.5619 16.7082C36.5656 16.5577 36.5387 16.4081 36.4828 16.2683C36.427 16.1286 36.3433 16.0016 36.2368 15.8952C36.1304 15.7887 36.0034 15.705 35.8637 15.6492C35.7239 15.5933 35.5743 15.5664 35.4238 15.5701C35.2733 15.5738 35.1252 15.608 34.9883 15.6707C34.8515 15.7334 34.7288 15.8233 34.6278 15.9348L33.0167 17.5459L31.3917 15.8931C31.2906 15.7816 31.1679 15.6917 31.0311 15.6291C30.8942 15.5664 30.7461 15.5321 30.5956 15.5284C30.4451 15.5247 30.2955 15.5516 30.1557 15.6075C30.016 15.6634 29.889 15.7471 29.7826 15.8535C29.6762 15.9599 29.5925 16.0869 29.5366 16.2266C29.4807 16.3664 29.4538 16.5161 29.4575 16.6665C29.4612 16.817 29.4954 16.9652 29.5581 17.102C29.6208 17.2388 29.7107 17.3615 29.8222 17.4626L31.4333 19.1154L29.8222 20.6848C29.6144 20.8931 29.4977 21.1753 29.4977 21.4695C29.4977 21.7637 29.6144 22.0459 29.8222 22.2542Z" fill="black"/>
</svg>
