<svg width="25" height="24" viewBox="0 0 25 24" fill="none" xmlns="http://www.w3.org/2000/svg">
<path d="M10.7878 20.0757C13.015 20.0752 15.1779 19.3297 16.9323 17.9577L22.4481 23.4735L24.2222 21.6993L18.7064 16.1835C20.0791 14.429 20.8252 12.2655 20.8257 10.0378C20.8257 4.50323 16.3225 0 10.7878 0C5.25323 0 0.75 4.50323 0.75 10.0378C0.75 15.5725 5.25323 20.0757 10.7878 20.0757ZM10.7878 2.50946C14.9397 2.50946 18.3162 5.88594 18.3162 10.0378C18.3162 14.1897 14.9397 17.5662 10.7878 17.5662C6.63594 17.5662 3.25946 14.1897 3.25946 10.0378C3.25946 5.88594 6.63594 2.50946 10.7878 2.50946Z" fill="#333333"/>
</svg>
