<svg width="59" height="58" viewBox="0 0 59 58" fill="none" xmlns="http://www.w3.org/2000/svg">
<path d="M29.5 40.2321L14.3571 25.0893M29.5 57.2679V26.9821V57.2679ZM29.5 28.875V40.2321V28.875ZM29.5 28.875C29.5 24.8589 27.9046 21.0072 25.0648 18.1674C22.2249 15.3275 18.3733 13.7321 14.3571 13.7321H3V25.0893C3 29.1054 4.5954 32.9571 7.43524 35.7969C10.2751 38.6367 14.1267 40.2321 18.1429 40.2321H29.5V28.875ZM29.5 28.875H40.8571C44.8733 28.875 48.7249 27.2796 51.5648 24.4398C54.4046 21.5999 56 17.7483 56 13.7321V2.375H44.6429C40.6267 2.375 36.7751 3.9704 33.9352 6.81024C31.0954 9.65008 29.5 13.5017 29.5 17.5179V28.875ZM29.5 28.875L44.6429 13.7321L29.5 28.875Z" stroke="black" stroke-width="4.5"/>
</svg>
