<svg width="41" height="39" viewBox="0 0 41 39" fill="none" xmlns="http://www.w3.org/2000/svg">
<path d="M35.1855 30.5871C36.0055 29.2871 36.49 27.7829 36.49 26.1486C36.49 21.5243 32.7441 17.7914 28.1036 17.7914C23.4632 17.7914 19.7173 21.5243 19.7173 26.1486C19.7173 30.7729 23.4632 34.5057 28.085 34.5057C29.725 34.5057 31.2532 34.0229 32.5391 33.2057L38.3536 39L41 36.3629L35.1855 30.5871ZM28.1036 30.7914C26.868 30.7914 25.6829 30.3023 24.8092 29.4316C23.9354 28.5609 23.4445 27.3799 23.4445 26.1486C23.4445 24.9172 23.9354 23.7363 24.8092 22.8656C25.6829 21.9949 26.868 21.5057 28.1036 21.5057C29.3393 21.5057 30.5244 21.9949 31.3981 22.8656C32.2719 23.7363 32.7627 24.9172 32.7627 26.1486C32.7627 27.3799 32.2719 28.5609 31.3981 29.4316C30.5244 30.3023 29.3393 30.7914 28.1036 30.7914ZM27.4327 15.0057C26.0536 15.0429 24.7305 15.34 23.5191 15.8414L22.4941 14.3L15.4123 25.7771L9.80273 19.24L3.03773 30.03L0 27.8571L9.31818 13L14.9091 19.5L22.3636 7.42857L27.4327 15.0057ZM32.2595 15.9343C31.0668 15.4143 29.7809 15.0986 28.4391 15.0243L37.9809 0L41 2.19143L32.2595 15.9343Z" fill="black"/>
</svg>
