<svg width="28" height="28" viewBox="0 0 28 28" fill="none" xmlns="http://www.w3.org/2000/svg">
<path d="M14.3631 24.2136C14.5619 24.2135 14.7545 24.2832 14.9072 24.4104C15.0599 24.5377 15.1632 24.7145 15.199 24.9101L15.2125 25.063V27.1255C15.2129 27.3377 15.1338 27.5424 14.9908 27.6993C14.8478 27.8562 14.6513 27.9538 14.4399 27.973C14.2285 27.9922 14.0175 27.9315 13.8486 27.8029C13.6797 27.6744 13.5651 27.4872 13.5272 27.2784L13.5137 27.1255V25.063C13.5137 24.8377 13.6032 24.6217 13.7625 24.4624C13.9218 24.3031 14.1378 24.2136 14.3631 24.2136ZM22.5144 21.3119L23.972 22.7695C24.1267 22.9297 24.2124 23.1443 24.2104 23.367C24.2085 23.5897 24.1191 23.8028 23.9617 23.9603C23.8042 24.1178 23.5911 24.2071 23.3684 24.209C23.1457 24.211 22.9311 24.1254 22.7709 23.9706L21.3132 22.513C21.2321 22.4346 21.1674 22.3409 21.1229 22.2373C21.0784 22.1336 21.0549 22.0222 21.0539 21.9094C21.053 21.7966 21.0745 21.6847 21.1172 21.5803C21.1599 21.4759 21.223 21.3811 21.3027 21.3013C21.3825 21.2216 21.4773 21.1585 21.5817 21.1158C21.6861 21.0731 21.798 21.0516 21.9107 21.0526C22.0235 21.0536 22.135 21.077 22.2386 21.1215C22.3423 21.166 22.436 21.2307 22.5144 21.3119ZM7.41466 21.3119C7.5739 21.4712 7.66336 21.6872 7.66336 21.9124C7.66336 22.1377 7.5739 22.3537 7.41466 22.513L5.95531 23.9706C5.87695 24.0518 5.78322 24.1165 5.67959 24.161C5.57595 24.2055 5.46449 24.2289 5.3517 24.2299C5.23891 24.2309 5.12706 24.2094 5.02266 24.1667C4.91827 24.124 4.82343 24.0609 4.74367 23.9812C4.66391 23.9014 4.60084 23.8066 4.55813 23.7022C4.51542 23.5978 4.49393 23.4859 4.49491 23.3731C4.49589 23.2603 4.51932 23.1489 4.56384 23.0452C4.60836 22.9416 4.67307 22.8479 4.7542 22.7695L6.21354 21.3119C6.37284 21.1526 6.58886 21.0632 6.8141 21.0632C7.03934 21.0632 7.25536 21.1526 7.41466 21.3119ZM14.3801 6.7762C16.3993 6.7762 18.3359 7.57834 19.7637 9.00616C21.1915 10.434 21.9936 12.3705 21.9936 14.3898C21.9936 16.409 21.1915 18.3455 19.7637 19.7734C18.3359 21.2012 16.3993 22.0033 14.3801 22.0033C12.3608 22.0033 10.4243 21.2012 8.99649 19.7734C7.56867 18.3455 6.76653 16.409 6.76653 14.3898C6.76653 12.3705 7.56867 10.434 8.99649 9.00616C10.4243 7.57834 12.3608 6.7762 14.3801 6.7762ZM14.3801 8.47509C13.6034 8.47509 12.8342 8.62807 12.1166 8.92531C11.399 9.22255 10.747 9.65823 10.1978 10.2075C9.64856 10.7567 9.21288 11.4087 8.91564 12.1263C8.6184 12.8439 8.46542 13.613 8.46542 14.3898C8.46542 15.1665 8.6184 15.9356 8.91564 16.6532C9.21288 17.3708 9.64856 18.0228 10.1978 18.5721C10.747 19.1213 11.399 19.557 12.1166 19.8542C12.8342 20.1514 13.6034 20.3044 14.3801 20.3044C15.9488 20.3044 17.4532 19.6813 18.5624 18.5721C19.6716 17.4628 20.2948 15.9584 20.2948 14.3898C20.2948 12.8211 19.6716 11.3167 18.5624 10.2075C17.4532 9.09824 15.9488 8.47509 14.3801 8.47509ZM27.0861 13.5717C27.2968 13.5736 27.4993 13.6537 27.6542 13.7964C27.8092 13.9392 27.9056 14.1345 27.9246 14.3443C27.9437 14.5542 27.8841 14.7636 27.7574 14.932C27.6307 15.1003 27.4459 15.2156 27.239 15.2553L27.0861 15.2689H25.0219C24.8096 15.2693 24.6049 15.1902 24.4481 15.0472C24.2912 14.9042 24.1936 14.7076 24.1744 14.4962C24.1552 14.2848 24.2159 14.0739 24.3444 13.905C24.473 13.7361 24.6601 13.6215 24.869 13.5836L25.0219 13.57H27.0844L27.0861 13.5717ZM3.71448 13.531C3.92675 13.5306 4.13147 13.6097 4.28834 13.7527C4.4452 13.8957 4.54283 14.0923 4.56201 14.3037C4.58119 14.5151 4.52053 14.726 4.39196 14.8949C4.2634 15.0638 4.07625 15.1784 3.86738 15.2163L3.71448 15.2299H1.65203C1.43976 15.2302 1.23504 15.1511 1.07818 15.0081C0.921316 14.8651 0.823681 14.6686 0.804502 14.4572C0.785322 14.2458 0.845988 14.0348 0.974552 13.8659C1.10312 13.697 1.29026 13.5824 1.49913 13.5446L1.65203 13.531H3.71448ZM5.83809 4.72055L5.95701 4.81908L7.41466 6.27673C7.56515 6.42655 7.65407 6.62731 7.66389 6.83944C7.67371 7.05157 7.60371 7.25968 7.4677 7.42277C7.33169 7.58585 7.13953 7.69208 6.92908 7.72051C6.71864 7.74894 6.50518 7.69752 6.33077 7.57638L6.21184 7.47784L4.7542 6.0202C4.60371 5.87037 4.51479 5.66961 4.50497 5.45748C4.49515 5.24535 4.56514 5.03724 4.70115 4.87416C4.83716 4.71107 5.02933 4.60485 5.23977 4.57641C5.45022 4.54798 5.66368 4.5994 5.83809 4.72055ZM23.972 4.81908C24.1123 4.95953 24.199 5.14467 24.217 5.34236C24.235 5.54005 24.1831 5.7378 24.0705 5.90127L23.972 6.0202L22.5144 7.47784C22.3645 7.62833 22.1638 7.71725 21.9516 7.72707C21.7395 7.73689 21.5314 7.6669 21.3683 7.53089C21.2052 7.39488 21.099 7.20271 21.0706 6.99227C21.0421 6.78182 21.0936 6.56836 21.2147 6.39395L21.3132 6.27503L22.7709 4.81908C22.9302 4.65984 23.1462 4.57038 23.3714 4.57038C23.5967 4.57038 23.8127 4.65984 23.972 4.81908ZM14.3699 0.81311C14.5687 0.813044 14.7612 0.882716 14.914 1.00999C15.0667 1.13727 15.17 1.31409 15.2057 1.50965L15.2193 1.66255V3.725C15.2197 3.93727 15.1406 4.14199 14.9976 4.29886C14.8546 4.45572 14.658 4.55335 14.4466 4.57253C14.2352 4.59171 14.0243 4.53105 13.8554 4.40248C13.6865 4.27392 13.5719 4.08677 13.534 3.8779L13.5205 3.725V1.66255C13.5205 1.43727 13.6099 1.22121 13.7692 1.06191C13.9285 0.902605 14.1446 0.81311 14.3699 0.81311Z" fill="white"/>
</svg>
