<svg width="27" height="32" viewBox="0 0 27 32" fill="none" xmlns="http://www.w3.org/2000/svg">
<path d="M1.11949 31.6837C0.822579 31.6837 0.537834 31.5658 0.32789 31.3558C0.117946 31.1459 0 30.8611 0 30.5642C0 30.2673 0.117946 29.9826 0.32789 29.7726C0.537834 29.5627 0.822579 29.4448 1.11949 29.4448H3.35846V27.2058C3.358 25.3048 3.89533 23.4425 4.90838 21.834C5.92144 20.2255 7.36888 18.9364 9.0835 18.1156C9.73281 17.8043 10.0754 17.2715 10.0754 16.7946V15.2273C10.0754 14.7504 9.73057 14.2175 9.0835 13.9063C7.36888 13.0855 5.92144 11.7964 4.90838 10.1879C3.89533 8.57934 3.358 6.71703 3.35846 4.81608V2.57711H1.11949C0.822579 2.57711 0.537834 2.45916 0.32789 2.24922C0.117946 2.03927 0 1.75453 0 1.45762C0 1.16071 0.117946 0.875969 0.32789 0.666024C0.537834 0.45608 0.822579 0.338135 1.11949 0.338135H25.7482C26.0451 0.338135 26.3298 0.45608 26.5398 0.666024C26.7497 0.875969 26.8676 1.16071 26.8676 1.45762C26.8676 1.75453 26.7497 2.03927 26.5398 2.24922C26.3298 2.45916 26.0451 2.57711 25.7482 2.57711H23.5092V4.81608C23.5097 6.71703 22.9723 8.57934 21.9593 10.1879C20.9462 11.7964 19.4988 13.0855 17.7841 13.9063C17.1348 14.2175 16.7923 14.7504 16.7923 15.2273V16.7946C16.7923 17.2715 17.1371 17.8043 17.7841 18.1156C19.4988 18.9364 20.9462 20.2255 21.9593 21.834C22.9723 23.4425 23.5097 25.3048 23.5092 27.2058V29.4448H25.7482C26.0451 29.4448 26.3298 29.5627 26.5398 29.7726C26.7497 29.9826 26.8676 30.2673 26.8676 30.5642C26.8676 30.8611 26.7497 31.1459 26.5398 31.3558C26.3298 31.5658 26.0451 31.6837 25.7482 31.6837H1.11949ZM5.59743 2.57711V4.81608C5.59743 6.0184 5.8661 7.1558 6.35196 8.17453H20.5157C20.9993 7.1558 21.2702 6.0184 21.2702 4.81608V2.57711H5.59743ZM12.3143 16.7946C12.3143 18.3641 11.2441 19.5619 10.0507 20.1351C8.71697 20.7735 7.59103 21.7762 6.803 23.0273C6.01497 24.2785 5.59702 25.7271 5.59743 27.2058C5.59743 27.2058 7.53637 24.2974 12.3143 23.8921V16.7946ZM14.5533 16.7946V23.8921C19.3313 24.2974 21.2702 27.2058 21.2702 27.2058C21.2706 25.7271 20.8527 24.2785 20.0646 23.0273C19.2766 21.7762 18.1507 20.7735 16.8169 20.1351C15.6235 19.5619 14.5533 18.3663 14.5533 16.7968V16.7946Z" fill="black"/>
</svg>
